<?xml version="1.0" encoding="UTF-8" standalone="no" ?>
<!DOCTYPE svg PUBLIC "-//W3C//DTD SVG 1.1//EN" "http://www.w3.org/Graphics/SVG/1.1/DTD/svg11.dtd">
<svg xmlns="http://www.w3.org/2000/svg" xmlns:xlink="http://www.w3.org/1999/xlink" version="1.1" width="1280" height="1024" viewBox="0 0 1280 1024" xml:space="preserve">
<desc>Created with Fabric.js 3.6.3</desc>
<defs>
</defs>
<g transform="matrix(1.9662058371735787 0 0 1.9662058371735787 640.2456813819576 512.1966205837173)" id="background-logo"  >
<rect style="stroke: none; stroke-width: 1; stroke-dasharray: none; stroke-linecap: butt; stroke-dashoffset: 0; stroke-linejoin: miter; stroke-miterlimit: 4; fill: rgb(15,15,15); fill-rule: nonzero; opacity: 1;"  paint-order="stroke"  x="-325" y="-260" rx="0" ry="0" width="650" height="520" />
</g>
<g transform="matrix(1.9699870022450665 0 0 1.969987002245067 802.1363139101666 510.59852772775605)" id="text-logo-path"  >
<path style="stroke: rgb(255,255,255); stroke-width: 0; stroke-dasharray: none; stroke-linecap: butt; stroke-dashoffset: 0; stroke-linejoin: miter; stroke-miterlimit: 10; fill: rgb(43,164,198); fill-rule: nonzero; opacity: 1;"  paint-order="stroke"  transform=" translate(-172.55499999999998, 25.02)" d="M 1.54 -8.87 L 1.54 -8.87 L 1.54 -13.87 L 6.92 -13.87 L 6.92 -8.53 Q 6.92 -3.46 11.84 -3.46 L 11.84 -3.46 Q 16.92 -3.46 16.96 -8.53 L 16.96 -8.53 L 16.96 -50.04 L 22.33 -50.04 L 22.33 -8.87 Q 22.33 -3.95 19.55 -1.39 Q 16.77 1.17 11.84 1.17 Q 6.92 1.17 4.23 -1.37 Q 1.54 -3.91 1.54 -8.87 Z M 35.79 -9.63 L 35.79 -9.63 L 35.79 -40.42 Q 35.79 -45.57 38.95 -48.39 Q 42.11 -51.21 48.43 -51.21 Q 54.74 -51.21 57.98 -48.39 Q 61.21 -45.57 61.21 -40.42 L 61.21 -40.42 L 61.21 -23.5 L 41.17 -23.5 L 41.17 -9.63 Q 41.17 -3.46 48.5 -3.46 Q 55.83 -3.46 55.83 -9.63 L 55.83 -9.63 L 55.83 -13.87 L 61.21 -13.87 L 61.21 -9.63 Q 61.21 -4.47 58.05 -1.65 Q 54.89 1.17 48.58 1.17 Q 42.26 1.17 39.03 -1.65 Q 35.79 -4.47 35.79 -9.63 Z M 41.17 -40.42 L 41.17 -28.12 L 55.83 -28.12 L 55.83 -40.42 Q 55.83 -46.58 48.5 -46.58 Q 41.17 -46.58 41.17 -40.42 L 41.17 -40.42 Z M 87.87 0 L 75.46 0 L 75.46 -50.04 L 87.08 -50.04 Q 93.09 -50.04 96.21 -47.2 Q 99.33 -44.37 99.33 -39.25 L 99.33 -39.25 L 99.33 -34.67 Q 99.33 -28.12 93.84 -26.24 L 93.84 -26.24 Q 100.08 -24.55 100.08 -17.71 L 100.08 -17.71 L 100.08 -10.79 Q 100.08 -5.64 97 -2.82 Q 93.92 0 87.87 0 L 87.87 0 Z M 80.83 -24.25 L 80.83 -4.62 L 87.87 -4.62 Q 94.71 -4.62 94.71 -10.79 L 94.71 -10.79 L 94.71 -17.71 Q 94.71 -20.64 92.94 -22.45 Q 91.17 -24.25 87.87 -24.25 L 87.87 -24.25 L 80.83 -24.25 Z M 80.83 -45.42 L 80.83 -28.12 L 87.08 -28.12 Q 90.46 -28.12 92.19 -29.89 Q 93.92 -31.66 93.92 -34.67 L 93.92 -34.67 L 93.92 -39.25 Q 93.92 -42.18 92.15 -43.8 Q 90.38 -45.42 87.08 -45.42 L 87.08 -45.42 L 80.83 -45.42 Z M 113.54 -9.63 L 113.54 -9.63 L 113.54 -50.04 L 118.96 -50.04 L 118.96 -9.63 Q 118.96 -3.46 126.08 -3.46 Q 133.21 -3.46 133.21 -9.63 L 133.21 -9.63 L 133.21 -50.04 L 138.58 -50.04 L 138.58 -9.63 Q 138.58 -3.46 145.71 -3.46 Q 152.83 -3.46 152.83 -9.63 L 152.83 -9.63 L 152.83 -50.04 L 158.21 -50.04 L 158.21 -9.63 Q 158.21 -4.55 154.98 -1.69 Q 151.74 1.17 145.39 1.17 Q 139.04 1.17 135.88 -3.31 L 135.88 -3.31 Q 132.87 1.17 126.44 1.17 Q 120.01 1.17 116.78 -1.69 Q 113.54 -4.55 113.54 -9.63 Z M 171.29 -9.63 L 171.29 -9.63 L 171.29 -17.33 Q 171.29 -28.12 182.39 -28.12 L 182.39 -28.12 L 191.3 -28.12 L 191.3 -40.72 Q 191.3 -43.5 189.53 -45.04 Q 187.76 -46.58 184.3 -46.58 L 184.3 -46.58 Q 177.46 -46.58 177.46 -40.72 L 177.46 -40.72 L 177.46 -36.21 L 172.05 -36.21 L 172.05 -40.42 Q 172.05 -45.57 175.09 -48.39 Q 178.14 -51.21 184.3 -51.21 Q 190.47 -51.21 193.59 -48.39 Q 196.71 -45.57 196.71 -40.42 L 196.71 -40.42 L 196.71 0 L 194.38 0 L 192.39 -4.93 Q 190.77 -2.14 188.16 -0.49 Q 185.54 1.17 182.39 1.17 L 182.39 1.17 Q 171.29 1.17 171.29 -9.63 Z M 176.67 -17.33 L 176.67 -9.63 Q 176.67 -6.69 177.91 -5.08 Q 179.15 -3.46 182.39 -3.46 Q 185.62 -3.46 188.38 -5.96 Q 191.15 -8.46 191.3 -10.94 L 191.3 -10.94 L 191.3 -23.5 L 182.39 -23.5 Q 179.15 -23.5 177.91 -21.88 Q 176.67 -20.27 176.67 -17.33 L 176.67 -17.33 Z M 210.17 -8.87 L 210.17 -8.87 L 210.17 -50.04 L 227.13 -50.04 L 227.13 -45.42 L 215.55 -45.42 L 215.55 -8.53 Q 215.55 -6.39 216.68 -4.93 Q 217.8 -3.46 219.83 -3.46 Q 221.86 -3.46 222.95 -4.89 Q 224.04 -6.32 224.04 -8.53 L 224.04 -8.53 L 224.04 -17.71 L 229.42 -17.71 L 229.42 -8.87 Q 229.42 -4.02 226.85 -1.43 Q 224.27 1.17 219.87 1.17 Q 215.47 1.17 212.82 -1.41 Q 210.17 -3.99 210.17 -8.87 Z M 238.67 -9.63 L 238.67 -9.63 L 238.67 -16.17 L 244.05 -16.17 L 244.05 -9.32 Q 244.05 -6.54 245.98 -5 Q 247.92 -3.46 251.68 -3.46 Q 255.44 -3.46 257.37 -5 Q 259.31 -6.54 259.31 -9.19 Q 259.31 -11.84 258.73 -13.42 Q 258.15 -15 256.38 -16.77 L 256.38 -16.77 L 242.81 -30.04 Q 240.44 -32.41 239.55 -34.68 Q 238.67 -36.96 238.67 -40.42 L 238.67 -40.42 Q 238.67 -45.57 241.87 -48.39 Q 245.06 -51.21 251.53 -51.21 L 251.53 -51.21 Q 263.94 -51.21 263.94 -40.42 L 263.94 -40.42 L 263.94 -33.88 L 258.52 -33.88 L 258.52 -40.72 Q 258.52 -43.5 256.72 -45.04 Q 254.91 -46.58 251.28 -46.58 Q 247.66 -46.58 245.85 -45.04 Q 244.05 -43.5 244.05 -40.81 Q 244.05 -38.12 244.59 -36.58 Q 245.14 -35.04 246.98 -33.35 L 246.98 -33.35 L 260.78 -20.11 Q 263 -17.63 263.84 -15.36 Q 264.69 -13.08 264.69 -9.63 L 264.69 -9.63 Q 264.69 1.17 251.68 1.17 Q 238.67 1.17 238.67 -9.63 Z M 277.36 -9.63 L 277.36 -9.63 L 277.36 -40.42 Q 277.36 -45.57 280.63 -48.39 Q 283.9 -51.21 290.4 -51.21 Q 296.91 -51.21 300.22 -48.39 Q 303.53 -45.57 303.53 -40.42 L 303.53 -40.42 L 303.53 -9.63 Q 303.53 -4.47 300.25 -1.65 Q 296.98 1.17 290.48 1.17 Q 283.98 1.17 280.67 -1.65 Q 277.36 -4.47 277.36 -9.63 Z M 282.73 -40.42 L 282.73 -9.63 Q 282.73 -3.46 290.44 -3.46 Q 298.15 -3.46 298.15 -9.63 L 298.15 -9.63 L 298.15 -40.42 Q 298.15 -46.58 290.44 -46.58 Q 282.73 -46.58 282.73 -40.42 L 282.73 -40.42 Z M 323.15 0 L 317.78 0 L 317.78 -50.04 L 320.07 -50.04 L 321.99 -45.04 Q 325.67 -51.21 332.25 -51.21 L 332.25 -51.21 Q 343.57 -51.21 343.57 -40.42 L 343.57 -40.42 L 343.57 0 L 338.19 0 L 338.19 -40.42 Q 338.19 -43.35 336.91 -44.97 Q 335.63 -46.58 332.25 -46.58 Q 328.87 -46.58 326.01 -43.97 Q 323.15 -41.36 323.15 -38.88 L 323.15 -38.88 L 323.15 0 Z" stroke-linecap="round" />
</g>
<g transform="matrix(1.1426826670323171 0 0 1.1426826670323171 270.7144950820437 511.0642958565386)" id="logo-logo"  >
<g style=""  paint-order="stroke"   >
		<g transform="matrix(1.2485131559256284 0 0 1.2485131559256284 0 0)"  >
<g style=""  paint-order="stroke"   >
		<g transform="matrix(1 0 0 1 0 0)"  >
<linearGradient id="SVGID_1_352955" gradientUnits="userSpaceOnUse" gradientTransform="matrix(1 0 0 1 -100 -100)"  x1="0" y1="0" x2="0" y2="201">
<stop offset="0%" style="stop-color:rgb(91,36,122);stop-opacity: 1"/>
<stop offset="100%" style="stop-color:rgb(27,206,223);stop-opacity: 1"/>
</linearGradient>
<polygon style="stroke: none; stroke-width: 1; stroke-dasharray: none; stroke-linecap: butt; stroke-dashoffset: 0; stroke-linejoin: miter; stroke-miterlimit: 4; fill: url(#SVGID_1_352955); fill-rule: nonzero; opacity: 1;"  paint-order="stroke"  points="100,100 0,100 0,95.12 95.12,95.12 95.12,-95.12 -95.12,-95.12 -95.12,0 -100,0 -100,-100 100,-100 100,100 " />
</g>
</g>
</g>
</g>
</g>
<g transform="matrix(1.9699870022450665 0 0 1.9699870022450665 261.29212805055363 511.28487119933817)" id="tagline-3a78d944-c0db-44d4-8ad5-60158c925687-logo-path"  >
<linearGradient id="SVGID_4_352957" gradientUnits="userSpaceOnUse" gradientTransform="matrix(1 0 0 1 2.740000000000002 -89.04)"  x1="0" y1="0" x2="0" y2="268">
<stop offset="0%" style="stop-color:rgb(91,36,122);stop-opacity: 1"/>
<stop offset="100%" style="stop-color:rgb(27,206,223);stop-opacity: 1"/>
</linearGradient>
<path style="stroke: rgb(255,255,255); stroke-width: 0; stroke-dasharray: none; stroke-linecap: butt; stroke-dashoffset: 0; stroke-linejoin: miter; stroke-miterlimit: 4; fill: url(#SVGID_4_352957); fill-rule: nonzero; opacity: 1;"  paint-order="stroke"  transform=" translate(-21.240000000000002, 43.48500000000001)" d="M 2.74 -15.79 L 2.74 -15.79 L 2.74 -24.68 L 12.31 -24.68 L 12.31 -15.19 Q 12.31 -6.15 21.07 -6.15 L 21.07 -6.15 Q 30.1 -6.15 30.17 -15.19 L 30.17 -15.19 L 30.17 -80.81 L 12.31 -80.81 L 12.31 -89.04 L 39.74 -89.04 L 39.74 -15.79 Q 39.74 -7.02 34.79 -2.48 Q 29.83 2.07 21.07 2.07 Q 12.31 2.07 7.53 -2.44 Q 2.74 -6.96 2.74 -15.79 Z" stroke-linecap="round" />
</g>
</svg>